<?xml version="1.0" encoding="utf-8"?>
<!-- Generator: Adobe Illustrator 21.0.2, SVG Export Plug-In . SVG Version: 6.00 Build 0)  -->
<svg version="1.1" id="Layer_1" xmlns="http://www.w3.org/2000/svg" xmlns:xlink="http://www.w3.org/1999/xlink" x="0px" y="0px"
	 viewBox="0 0 501.9 438.3" style="enable-background:new 0 0 501.9 438.3;" xml:space="preserve">
<style type="text/css">
	.st0{fill:#FFFFFF;stroke:#FFFFFF;stroke-miterlimit:10;}
	.st1{fill:#FFFFFF;}
	.st2{fill:#F18E3B;}
</style>
<g id="Layer_x0020_1">
	<g id="_2419070967424">
		<path class="st0" d="M9.7,144.8c0,0.1-0.1,0.3-0.1,0.4c-0.1,0.1-0.2,0.2-0.4,0.3l-2.8,1.7c-1-1.2-1.7-2.7-2-4.2
			c-0.3-1.7-0.2-3.5,0.2-5.4c0.4-1.8,1.2-3.4,2.1-4.7s2.1-2.3,3.4-3.1c1.4-0.7,2.8-1.2,4.5-1.4c1.6-0.1,3.3-0.1,5,0.4
			c1.8,0.4,3.4,1.1,4.8,2c1.4,0.9,2.4,2,3.3,3.3c0.8,1.3,1.4,2.8,1.7,4.4c0.2,1.6,0.1,3.3-0.2,5c-0.2,0.9-0.5,1.7-0.9,2.5
			c-0.3,0.7-0.7,1.4-1.2,2.1c-0.4,0.6-0.9,1.2-1.4,1.7c-0.6,0.5-1.1,0.9-1.7,1.2l-2.1-2.4c-0.1-0.1-0.2-0.3-0.3-0.5
			c-0.1-0.2-0.1-0.4-0.1-0.7c0.1-0.2,0.1-0.4,0.3-0.6c0.1-0.1,0.3-0.3,0.4-0.4c0.1-0.2,0.4-0.4,0.6-0.6s0.4-0.4,0.6-0.7
			c0.2-0.3,0.4-0.6,0.6-1.1c0.2-0.4,0.4-0.9,0.5-1.5c0.2-0.9,0.2-1.8,0.1-2.7c-0.1-0.8-0.5-1.6-1-2.3c-0.6-0.7-1.2-1.3-2.2-1.8
			c-0.9-0.6-1.9-0.9-3.1-1.2c-1.2-0.3-2.4-0.4-3.4-0.3c-1.1,0.1-1.9,0.4-2.7,0.9c-0.8,0.4-1.4,0.9-1.9,1.7c-0.6,0.6-0.9,1.4-1.1,2.4
			c-0.1,0.5-0.2,0.9-0.3,1.4c0,0.4-0.1,0.9,0,1.2c0,0.4,0.1,0.8,0.2,1.2c0.1,0.4,0.3,0.7,0.5,1.2c0.1,0.1,0.1,0.3,0.1,0.4
			C9.8,144.5,9.8,144.7,9.7,144.8z M12.1,173.9c-1.7-0.2-3.3-0.7-4.8-1.5c-1.4-0.9-2.7-1.9-3.7-3.1C2.7,168,2,166.5,1.6,165
			c-0.5-1.7-0.6-3.5-0.4-5.3c0.3-1.9,0.8-3.6,1.7-5.1c0.8-1.4,1.9-2.7,3.2-3.7c1.2-0.9,2.7-1.7,4.2-2.1c1.6-0.4,3.3-0.5,5-0.3
			c1.8,0.3,3.4,0.8,4.8,1.6c1.4,0.8,2.7,1.8,3.6,3.1c1,1.2,1.7,2.7,2.2,4.3c0.4,1.7,0.5,3.5,0.3,5.3c-0.2,1.9-0.8,3.6-1.6,5
			c-0.9,1.5-1.9,2.7-3.2,3.7c-1.3,0.9-2.7,1.7-4.3,2.1C15.6,174,13.9,174.1,12.1,173.9z M12.9,168.1c1.2,0.1,2.3,0.1,3.3,0
			c1-0.2,1.9-0.6,2.6-1.1c0.8-0.5,1.4-1.2,1.9-1.9c0.4-0.8,0.7-1.7,0.9-2.8c0.1-1.2,0.1-2.1-0.1-3c-0.3-0.9-0.7-1.7-1.3-2.4
			c-0.6-0.6-1.4-1.2-2.2-1.7c-0.9-0.4-2-0.7-3.2-0.9c-1.2-0.1-2.3-0.1-3.3,0.1c-1,0.1-1.9,0.5-2.7,1c-0.7,0.5-1.3,1.2-1.8,1.9
			c-0.4,0.9-0.7,1.8-0.9,2.9c-0.1,1.1-0.1,2.1,0.1,3c0.2,0.9,0.6,1.7,1.2,2.4c0.6,0.6,1.4,1.2,2.3,1.7
			C10.6,167.6,11.7,167.9,12.9,168.1z M19.9,193.3l0.2-6.9L0,185.9l0.1-5.7l20.1,0.5l0.1-7l4.5,0.1l-0.5,19.6L19.9,193.3z
			 M21.5,213.6l-0.5-6.9l-20.1,1.5l-0.4-5.7l20.1-1.5l-0.6-6.9l4.5-0.4l1.5,19.5L21.5,213.6z M17.8,239c-1.8,0.3-3.5,0.3-5-0.1
			c-1.7-0.3-3.1-0.9-4.4-1.9c-1.4-0.9-2.4-2-3.4-3.5c-0.9-1.4-1.5-3.1-1.9-5c-0.3-1.9-0.3-3.7,0.1-5.3c0.4-1.7,1-3.2,1.9-4.5
			c0.9-1.3,2.1-2.4,3.5-3.2c1.4-0.9,3-1.5,4.7-1.8c1.8-0.3,3.5-0.3,5,0c1.7,0.4,3.1,1,4.4,1.9c1.3,0.9,2.4,2.1,3.3,3.5
			c0.9,1.4,1.6,3.1,1.9,5c0.4,1.9,0.4,3.7,0,5.3c-0.4,1.7-1,3.2-1.9,4.5c-0.9,1.3-2,2.4-3.5,3.2C21.1,238.1,19.5,238.7,17.8,239z
			 M16.7,233.3c1.2-0.2,2.3-0.6,3.2-1.1c0.9-0.4,1.7-1.1,2.2-1.7c0.6-0.7,0.9-1.5,1.2-2.4c0.2-0.9,0.2-1.9,0-3s-0.6-2-1.1-2.8
			c-0.5-0.8-1.2-1.4-1.9-1.9c-0.8-0.5-1.7-0.8-2.7-0.9s-2.2-0.1-3.3,0.1c-1.2,0.2-2.3,0.6-3.2,1c-0.9,0.5-1.7,1.1-2.2,1.8
			c-0.6,0.7-0.9,1.5-1.2,2.4c-0.2,0.9-0.2,1.9,0,3s0.6,2,1.1,2.8c0.5,0.8,1.1,1.4,1.9,1.9c0.8,0.4,1.7,0.7,2.7,0.9
			C14.4,233.5,15.6,233.5,16.7,233.3z M14.7,257.5l-4.4,1.2l-4-14.3l23.7-6.8l1.6,5.5l-19.3,5.5L14.7,257.5z M32.1,260.5l-5.5,1.9
			l2.5,7.3l-4,1.4l-2.4-7.3l-5.5,1.9l3.2,9.6l-4.2,1.4l-5.1-15l23.3-7.9l5.1,15l-4.2,1.4L32.1,260.5z M48.7,289.4l-22.5,10.2
			l-1.2-2.7c-0.1-0.4-0.3-0.8-0.3-1.1c0-0.4,0.1-0.7,0.4-1.2l8.6-16.6c-0.4,0.2-0.7,0.4-1.2,0.6c-0.4,0.1-0.7,0.4-1,0.5l-12,5.4
			l-2.1-4.5l22.5-10.2l1.2,2.7c0.1,0.2,0.1,0.4,0.2,0.6c0.1,0.1,0.1,0.3,0.1,0.4c0,0.1,0,0.4-0.1,0.5s-0.1,0.4-0.2,0.6l-8.7,16.8
			c0.4-0.3,0.9-0.5,1.2-0.7c0.4-0.2,0.8-0.4,1.2-0.5l11.9-5.4L48.7,289.4z M45.4,307.7l4.3,7.6l-9,5.2c-1.4-0.6-2.7-1.4-3.7-2.5
			c-1.1-1-2-2.2-2.7-3.5c-1-1.8-1.7-3.5-1.9-5.3c-0.3-1.8-0.2-3.5,0.1-5c0.4-1.6,1.1-3,2.1-4.4c1-1.3,2.3-2.4,3.9-3.3
			c1.6-0.9,3.2-1.5,4.8-1.7c1.7-0.2,3.2-0.1,4.8,0.3c1.5,0.4,3,1.2,4.3,2.2c1.3,1.2,2.4,2.5,3.5,4.2c0.5,0.9,0.9,1.7,1.2,2.6
			s0.5,1.7,0.6,2.5s0.1,1.6,0.1,2.4c-0.1,0.7-0.1,1.4-0.3,2.1l-3-0.1c-0.5-0.1-0.9-0.2-1.2-0.6c-0.3-0.3-0.4-0.7-0.4-1.3
			c0-0.5,0-1-0.1-1.4c0-0.4-0.1-0.9-0.1-1.3c-0.1-0.4-0.3-0.9-0.4-1.3c-0.2-0.4-0.4-0.9-0.7-1.4c-0.5-0.9-1.2-1.7-1.9-2.2
			c-0.7-0.6-1.6-0.9-2.4-1.1c-0.9-0.2-1.9-0.2-2.9,0c-0.9,0.2-2,0.6-3,1.2c-1.2,0.6-2,1.4-2.7,2.2c-0.7,0.9-1.2,1.7-1.4,2.6
			c-0.3,0.9-0.4,1.9-0.2,2.9s0.5,1.9,1,2.9c0.4,0.6,0.7,1.2,1.2,1.6c0.4,0.4,0.8,0.8,1.3,1.1l3.2-1.8l-1.2-2.2
			c-0.2-0.3-0.3-0.6-0.2-0.9c0.1-0.3,0.2-0.5,0.5-0.6L45.4,307.7z M64.8,337.3c-1.4,1.1-3,1.7-4.6,2.2c-1.6,0.4-3.2,0.4-4.8,0.2
			c-1.5-0.3-3-0.9-4.5-1.8c-1.4-0.9-2.7-2.1-3.8-3.7c-1.2-1.6-1.9-3.2-2.2-4.8c-0.4-1.7-0.5-3.3-0.2-4.8c0.3-1.6,0.9-3.1,1.7-4.5
			c0.9-1.4,2.1-2.6,3.5-3.6c1.4-1.1,3-1.7,4.6-2.2c1.6-0.4,3.2-0.4,4.8-0.2c1.6,0.3,3.1,0.9,4.5,1.8c1.4,0.9,2.7,2.2,3.8,3.7
			c1.1,1.6,1.8,3.2,2.2,4.8c0.4,1.7,0.4,3.3,0.1,4.8c-0.3,1.6-0.9,3.1-1.7,4.5C67.4,335.1,66.2,336.3,64.8,337.3z M61.4,332.6
			c1-0.7,1.8-1.4,2.4-2.3c0.6-0.8,1.1-1.7,1.3-2.5c0.1-0.9,0.1-1.8,0-2.7c-0.2-0.9-0.6-1.8-1.3-2.7c-0.6-0.9-1.4-1.6-2.2-2.1
			c-0.8-0.4-1.6-0.8-2.5-0.9c-0.9-0.1-1.8,0-2.8,0.4c-0.9,0.3-1.9,0.8-3,1.5c-1,0.7-1.8,1.4-2.4,2.3c-0.6,0.8-1,1.7-1.2,2.5
			s-0.2,1.8,0,2.7c0.2,0.9,0.6,1.8,1.2,2.7c0.6,0.9,1.4,1.6,2.2,2.1c0.8,0.4,1.6,0.8,2.5,0.9c0.9,0.1,1.8,0,2.8-0.4
			C59.4,333.8,60.4,333.3,61.4,332.6z M98.9,372c-1.2,1.3-2.6,2.2-4.1,3c-1.5,0.6-3,1-4.6,1.1c-1.6,0.1-3.2-0.2-4.8-0.9
			c-1.6-0.6-3.1-1.6-4.5-2.9c-1.4-1.4-2.4-2.8-3.1-4.3c-0.7-1.6-1.1-3.2-1.2-4.8c0-1.6,0.3-3.1,0.9-4.7c0.6-1.5,1.5-3,2.7-4.2
			c1.2-1.3,2.6-2.3,4.1-3c1.5-0.6,3-1,4.6-1.1c1.6,0,3.2,0.3,4.8,0.9c1.6,0.6,3.1,1.7,4.5,3c1.4,1.3,2.4,2.7,3.1,4.3
			c0.7,1.5,1.1,3.1,1.1,4.7c0.1,1.6-0.2,3.2-0.9,4.7C101,369.3,100.1,370.7,98.9,372z M94.6,368c0.9-0.9,1.5-1.8,1.9-2.7
			s0.7-1.8,0.7-2.7c0.1-0.9-0.1-1.7-0.5-2.6s-0.9-1.7-1.7-2.4c-0.8-0.7-1.7-1.3-2.5-1.7c-0.9-0.3-1.7-0.4-2.7-0.4
			c-0.9,0.1-1.8,0.4-2.7,0.9c-0.9,0.5-1.8,1.2-2.6,2.1c-0.9,0.9-1.5,1.7-1.9,2.7s-0.7,1.9-0.7,2.7c-0.1,0.9,0.1,1.8,0.5,2.7
			c0.4,0.8,0.9,1.7,1.7,2.4c0.8,0.8,1.7,1.3,2.5,1.7s1.7,0.4,2.6,0.4c0.9-0.1,1.8-0.4,2.7-0.9C92.9,369.6,93.8,368.9,94.6,368z
			 M107.7,377.3c0.6,0.5,1.2,0.9,1.7,1c0.6,0.2,1.1,0.3,1.6,0.2s0.9-0.2,1.4-0.5c0.4-0.3,0.8-0.6,1.1-1c0.6-0.9,0.9-1.8,0.7-2.7
			c-0.1-0.9-0.8-1.9-2-2.7l-1.8-1.4l-4.5,5.8L107.7,377.3z M109.1,395.1l-4-3.2c-0.8-0.6-1.1-1.3-0.9-2.2l1.2-8.1
			c0.1-0.4,0-0.6-0.1-0.9c-0.1-0.2-0.3-0.5-0.6-0.8l-1.2-0.9l-5.6,7.1l-4.5-3.5l15.3-19.4l6.3,5c1.4,1.1,2.5,2.2,3.2,3.2
			c0.8,1.1,1.3,2.1,1.5,3.1s0.1,2-0.1,2.9c-0.3,0.9-0.7,1.8-1.4,2.7c-0.5,0.6-1.1,1.2-1.7,1.6c-0.6,0.4-1.3,0.7-1.9,0.9
			c-0.7,0.2-1.4,0.4-2.2,0.3c-0.8,0-1.6-0.1-2.4-0.4c0.1,0.4,0.3,0.8,0.4,1.2c0.1,0.4,0.1,0.9,0.1,1.4L109.1,395.1z M125.3,389.9
			c1.2,0.8,2.4,1.1,3.2,0.9c0.9-0.3,1.8-0.9,2.4-2c0.3-0.4,0.5-0.9,0.6-1.4c0.1-0.4,0.1-0.9,0-1.4c-0.1-0.5-0.4-0.9-0.7-1.4
			c-0.3-0.4-0.8-0.9-1.4-1.2l-2.4-1.6l-4.2,6.6L125.3,389.9z M131.8,379.8c1.4,0.9,2.6,1.9,3.4,3c0.9,1,1.4,2,1.7,3.1
			c0.3,1,0.4,2,0.1,3.1c-0.2,1-0.6,2-1.2,3c-0.6,1-1.4,1.9-2.3,2.5c-0.9,0.6-1.9,1.1-3,1.2c-1.1,0.2-2.2,0.1-3.5-0.2
			c-1.3-0.3-2.6-0.9-4-1.9l-2.5-1.6l-4.5,6.9l-4.8-3l13.3-20.7L131.8,379.8z M159.8,395l-11.2,21.9l-5.1-2.6l4.8-9.3l-8.9-4.5
			l-4.8,9.2l-5.1-2.6l11.2-21.9l5.2,2.6l-4.8,9.1l8.9,4.6l4.7-9.2L159.8,395z M168.7,414.6l0.4-7.1c0-0.4,0-1,0-1.6
			c0.1-0.6,0.1-1.3,0.2-2c-0.4,0.6-0.9,1.2-1.2,1.6c-0.4,0.5-0.8,0.9-1.1,1.2l-4.5,5.4L168.7,414.6z M173.7,426.6l-4.1-1.6
			c-0.5-0.2-0.8-0.4-1-0.8c-0.2-0.3-0.3-0.6-0.3-1.1l0.2-4.5l-8.7-3.5l-3,3.5c-0.2,0.2-0.5,0.4-0.9,0.5c-0.4,0.1-0.8,0.1-1.2-0.1
			l-4.2-1.6l17.9-19.4l5.4,2.2L173.7,426.6z M203,409l-6.7,23.7l-2.9-0.8c-0.4-0.1-0.7-0.4-1-0.6c-0.2-0.2-0.4-0.5-0.6-0.9
			l-7.1-17.3c-0.1,0.4-0.1,0.9-0.3,1.2c-0.1,0.4-0.2,0.8-0.3,1.2l-3.6,12.7l-4.8-1.4l6.7-23.7l2.9,0.9c0.3,0.1,0.4,0.1,0.6,0.2
			c0.1,0.1,0.3,0.1,0.4,0.2c0.1,0.1,0.2,0.2,0.3,0.4c0.1,0.1,0.2,0.4,0.3,0.6l7.3,17.4c0.1-0.5,0.1-0.9,0.2-1.4
			c0.1-0.4,0.2-0.9,0.4-1.2l3.5-12.5L203,409z M215.6,426.4l-1.1-7.1c-0.1-0.4-0.1-1-0.3-1.6c-0.1-0.6-0.1-1.3-0.2-1.9
			c-0.3,0.6-0.6,1.2-0.9,1.7c-0.3,0.6-0.6,1-0.8,1.4l-3.4,6.2L215.6,426.4z M222.8,437.2l-4.4-0.7c-0.4-0.1-0.9-0.3-1.1-0.6
			c-0.3-0.3-0.4-0.6-0.5-1l-0.7-4.5l-9.2-1.7l-2.2,4c-0.2,0.3-0.4,0.5-0.8,0.7c-0.4,0.2-0.8,0.3-1.3,0.1l-4.4-0.7l13.8-22.6l5.8,1.1
			L222.8,437.2z M236.8,425.1l8.7,0.6l-0.8,10.4c-1.3,0.8-2.7,1.4-4.2,1.7c-1.4,0.3-3,0.4-4.5,0.3c-2.1-0.2-3.9-0.6-5.5-1.4
			c-1.6-0.7-3-1.7-4-3c-1.2-1.2-1.9-2.6-2.4-4.2c-0.5-1.6-0.7-3.2-0.6-5c0.1-1.8,0.6-3.5,1.3-5c0.7-1.5,1.7-2.7,2.9-3.8
			c1.2-1,2.7-1.7,4.3-2.2c1.7-0.5,3.5-0.7,5.4-0.5c1,0.1,2,0.2,2.9,0.4c0.9,0.2,1.7,0.6,2.4,0.9c0.7,0.4,1.4,0.8,2,1.2
			c0.6,0.4,1.1,0.9,1.6,1.4l-1.9,2.4c-0.3,0.4-0.6,0.6-1.1,0.6c-0.4,0.1-0.8-0.1-1.3-0.4c-0.4-0.4-0.8-0.6-1.2-0.8
			c-0.4-0.3-0.7-0.4-1.2-0.6c-0.4-0.2-0.9-0.3-1.3-0.4c-0.4-0.1-1-0.1-1.6-0.1c-1-0.1-2,0-2.9,0.3c-0.9,0.4-1.7,0.8-2.3,1.4
			c-0.6,0.6-1.2,1.4-1.6,2.4c-0.4,0.9-0.6,2-0.7,3.2c-0.1,1.3,0,2.4,0.3,3.5c0.3,1,0.7,1.9,1.3,2.7c0.6,0.7,1.4,1.4,2.2,1.8
			c0.9,0.4,1.9,0.6,3,0.7c0.6,0.1,1.3,0.1,1.9,0c0.6-0.1,1.1-0.3,1.7-0.4l0.3-3.7l-2.4-0.1c-0.4-0.1-0.6-0.1-0.8-0.4
			c-0.2-0.2-0.3-0.5-0.3-0.8L236.8,425.1z M253.6,418l0.1,5.8l7.7-0.2l0.1,4.2l-7.8,0.2l0.1,5.8l10.2-0.2l0.1,4.4l-15.8,0.4
			l-0.6-24.6l15.8-0.4l0.1,4.4L253.6,418z M312.5,405.4l5.5,24l-4.9,1.2l-3.2-13.8c-0.1-0.3-0.1-0.6-0.2-1c0-0.4-0.1-0.8-0.1-1.2
			l-3.5,13.8c-0.1,0.4-0.3,0.8-0.6,1.1c-0.3,0.3-0.6,0.4-1.1,0.6l-0.8,0.1c-0.4,0.1-0.8,0.1-1.2,0c-0.4-0.1-0.7-0.4-1-0.7l-9.2-10.9
			c0.1,0.4,0.2,0.8,0.3,1.2c0.1,0.4,0.2,0.7,0.3,1l3.2,13.8l-4.9,1.2l-5.5-24l4.2-0.9c0.3-0.1,0.5-0.1,0.6-0.1c0.2,0,0.4,0,0.5,0
			s0.4,0.1,0.5,0.1c0.1,0.1,0.3,0.2,0.4,0.4l8.9,10.7c0.4,0.4,0.6,0.7,0.9,1.2c0.4,0.4,0.6,0.8,0.9,1.2c0.1-0.5,0.1-1,0.3-1.5
			c0.1-0.5,0.2-1,0.3-1.5l3.4-13.5c0.1-0.2,0.1-0.4,0.2-0.5s0.2-0.3,0.4-0.4s0.3-0.1,0.4-0.2c0.2-0.1,0.4-0.1,0.6-0.1L312.5,405.4z
			 M332,414.9l-4.3-5.6c-0.4-0.4-0.6-0.8-1-1.3c-0.4-0.5-0.8-1-1.2-1.6c0.1,0.7,0.1,1.4,0.1,1.9c0,0.6,0,1.2,0,1.7v7.1L332,414.9z
			 M343.6,420.9l-4.2,1.4c-0.5,0.2-0.9,0.2-1.3,0.1c-0.4-0.1-0.6-0.3-0.9-0.6l-2.7-3.6l-8.9,3v4.5c0,0.4-0.1,0.7-0.4,1
			c-0.2,0.4-0.6,0.6-1,0.8l-4.2,1.4l1.2-26.4l5.5-1.9L343.6,420.9z M354.7,388.7l10.2,22.5l-2.7,1.2c-0.4,0.1-0.8,0.2-1.2,0.2
			c-0.3,0-0.6-0.1-1.1-0.3l-16.6-8.6c0.2,0.4,0.4,0.7,0.6,1.1c0.1,0.4,0.3,0.7,0.4,1.1l5.5,12l-4.6,2.1l-10.2-22.5l2.7-1.2
			c0.3-0.1,0.4-0.2,0.6-0.2c0.1-0.1,0.3-0.1,0.4-0.1c0.1,0,0.3,0,0.4,0.1c0.2,0,0.4,0.1,0.6,0.2l16.8,8.6c-0.2-0.4-0.4-0.8-0.6-1.2
			c-0.2-0.4-0.4-0.7-0.6-1.1l-5.3-11.9L354.7,388.7z M375.6,394.1l-5.3-4.7c-0.4-0.3-0.7-0.6-1.2-1c-0.4-0.4-0.9-0.9-1.4-1.4
			c0.2,0.6,0.4,1.3,0.5,1.9c0.1,0.6,0.2,1.1,0.3,1.6l1.4,6.9L375.6,394.1z M388.2,397.8l-3.8,2.2c-0.4,0.2-0.9,0.3-1.2,0.3
			c-0.4-0.1-0.7-0.2-1.1-0.4l-3.4-3l-8.1,4.7l0.9,4.5c0,0.3,0,0.6-0.2,1.1c-0.1,0.4-0.4,0.6-0.8,0.9l-3.9,2.2l-4-26.1l5.1-2.9
			L388.2,397.8z M391.2,379.7l7.1-5.1l6,8.5c-0.5,1.4-1.2,2.8-2.1,4c-0.9,1.2-2,2.2-3.3,3.1c-1.7,1.2-3.3,2-5,2.4s-3.4,0.5-5,0.3
			c-1.6-0.2-3.1-0.8-4.5-1.7c-1.4-0.9-2.7-2-3.7-3.5c-1.1-1.5-1.8-3-2.2-4.6c-0.4-1.7-0.5-3.2-0.2-4.8c0.3-1.5,0.9-3,1.9-4.5
			c0.9-1.4,2.2-2.7,3.8-3.9c0.9-0.6,1.7-1.1,2.5-1.4c0.8-0.4,1.7-0.7,2.4-0.9c0.8-0.2,1.5-0.4,2.3-0.4c0.7-0.1,1.4,0,2.1,0.1l0.1,3
			c0,0.4-0.1,0.9-0.4,1.2c-0.3,0.3-0.6,0.5-1.2,0.5c-0.5,0.1-1,0.1-1.4,0.2s-0.9,0.1-1.3,0.3c-0.4,0.1-0.8,0.4-1.2,0.6
			c-0.4,0.2-0.9,0.5-1.3,0.8c-0.9,0.6-1.6,1.4-2,2.2c-0.5,0.8-0.8,1.7-0.9,2.6c-0.1,0.9,0,1.8,0.3,2.8c0.3,0.9,0.8,1.9,1.4,2.9
			c0.8,1.1,1.6,1.9,2.4,2.5c0.9,0.6,1.8,1,2.7,1.2c0.9,0.2,1.9,0.1,2.9-0.1c0.9-0.2,1.9-0.6,2.8-1.3c0.6-0.4,1-0.9,1.4-1.3
			c0.4-0.4,0.7-0.9,1-1.4l-2.2-3l-1.9,1.4c-0.3,0.2-0.6,0.3-0.9,0.3c-0.3-0.1-0.5-0.2-0.6-0.4L391.2,379.7z M399.8,363.5l3.7,4.3
			l5.8-5l2.8,3.2l-5.8,5.1l3.8,4.4l7.6-6.6l2.9,3.4l-12,10.4l-16.1-18.6l12-10.4l2.9,3.3L399.8,363.5z M424.7,332.9l17.8,17
			l-3.5,3.7l-10.2-9.8c-0.3-0.2-0.5-0.4-0.8-0.7c-0.3-0.3-0.5-0.6-0.8-0.9l4.7,13.5c0.1,0.4,0.1,0.8,0.1,1.2
			c-0.1,0.4-0.3,0.8-0.6,1.1l-0.6,0.6c-0.3,0.3-0.6,0.5-1,0.6c-0.4,0.1-0.8,0.1-1.2,0l-13.7-4c0.3,0.2,0.6,0.5,0.9,0.7
			c0.3,0.3,0.6,0.5,0.8,0.7l10.2,9.8l-3.5,3.6l-17.9-16.9l3-3.2c0.2-0.2,0.4-0.4,0.5-0.5c0.1-0.1,0.2-0.2,0.4-0.3s0.4-0.1,0.5-0.1
			s0.4,0,0.6,0.1l13.4,4c0.5,0.1,1,0.3,1.4,0.4c0.5,0.2,0.9,0.4,1.4,0.6c-0.2-0.5-0.4-0.9-0.6-1.4c-0.1-0.5-0.4-0.9-0.5-1.4L421,338
			c-0.1-0.3-0.1-0.4-0.1-0.6c0-0.1,0-0.3,0.1-0.4c0.1-0.1,0.1-0.3,0.3-0.4c0.1-0.1,0.3-0.3,0.4-0.5L424.7,332.9z M432.9,329l4.5,3.5
			l4.8-6.1l3.3,2.7l-4.8,6l4.6,3.6l6.3-7.9l3.5,2.7l-9.8,12.5l-19.4-15.2l9.8-12.5l3.5,2.7L432.9,329z M447.9,299.2l20.7,13.3
			L467,315c-0.2,0.4-0.5,0.6-0.8,0.8c-0.3,0.1-0.6,0.3-1.1,0.4l-18.6,1.9c0.4,0.1,0.8,0.4,1.2,0.6c0.4,0.2,0.6,0.4,1,0.6l11.1,7.1
			l-2.7,4.2l-20.7-13.2l1.7-2.5c0.1-0.2,0.2-0.4,0.4-0.5c0.1-0.1,0.2-0.3,0.4-0.4c0.1-0.1,0.3-0.1,0.4-0.1c0.1-0.1,0.4-0.1,0.6-0.1
			l18.8-1.9c-0.4-0.2-0.9-0.4-1.2-0.6c-0.4-0.2-0.7-0.4-1.1-0.6l-10.9-7.1L447.9,299.2z M461,283.3l-3.2,6.2l17.9,9.1l-2.6,5.1
			l-17.9-9.2l-3.2,6.2l-4-2.1l8.9-17.4L461,283.3z M473.9,249.8c0.2,0.3,0.4,0.5,0.4,0.7s0.1,0.4-0.1,0.7c-0.1,0.3-0.2,0.5-0.5,0.7
			c-0.2,0.2-0.5,0.5-0.8,0.8c-0.4,0.3-0.6,0.6-0.9,1.1c-0.4,0.4-0.6,0.9-0.8,1.4c-0.4,1-0.4,1.9-0.1,2.5c0.3,0.6,0.8,1.1,1.5,1.3
			c0.5,0.2,0.9,0.1,1.4,0c0.4-0.2,0.8-0.5,1.2-0.9c0.4-0.4,0.8-0.9,1.2-1.4c0.4-0.6,0.8-1.2,1.2-1.7c0.5-0.6,0.9-1.1,1.5-1.7
			c0.5-0.5,1.1-0.9,1.7-1.2c0.6-0.4,1.4-0.5,2.2-0.6c0.8-0.1,1.7,0.1,2.6,0.4c1.1,0.4,2,0.9,2.9,1.6c0.8,0.7,1.4,1.5,1.9,2.4
			c0.5,0.9,0.7,2,0.8,3.2c0,1.2-0.1,2.4-0.6,3.7c-0.2,0.7-0.5,1.4-0.9,2.1c-0.4,0.7-0.9,1.4-1.4,2c-0.5,0.6-1.1,1.2-1.7,1.7
			c-0.6,0.5-1.2,0.9-1.8,1.2l-1.9-2.4c-0.1-0.1-0.3-0.4-0.3-0.6c-0.1-0.2-0.1-0.5,0-0.7c0.1-0.4,0.4-0.6,0.6-0.9
			c0.3-0.3,0.6-0.6,1.1-0.9c0.4-0.4,0.7-0.7,1.2-1.2c0.4-0.4,0.6-1.1,0.9-1.8c0.3-0.9,0.4-1.8,0.1-2.5c-0.2-0.6-0.8-1.2-1.7-1.5
			c-0.6-0.1-1.1-0.1-1.5,0c-0.4,0.2-0.9,0.5-1.2,0.9c-0.4,0.4-0.8,0.9-1.2,1.4c-0.4,0.6-0.8,1.2-1.2,1.7s-0.9,1.1-1.4,1.7
			c-0.5,0.5-1.1,0.9-1.7,1.2c-0.6,0.3-1.4,0.5-2.2,0.6c-0.9,0-1.9-0.1-3-0.5c-0.9-0.3-1.7-0.8-2.4-1.4c-0.7-0.6-1.3-1.4-1.7-2.3
			c-0.4-0.9-0.7-1.9-0.7-3.1c-0.1-1.1,0.1-2.3,0.6-3.6c0.2-0.7,0.5-1.4,0.9-2s0.7-1.2,1.2-1.7c0.4-0.6,0.9-1.1,1.4-1.4
			c0.4-0.4,0.9-0.8,1.5-1.1L473.9,249.8z M487.1,238.1l9.1,2.1l-1.3,5.5l-9.1-2.1l-16.9,5.3l1.2-4.9c0.1-0.5,0.3-0.9,0.6-1.1
			c0.3-0.2,0.6-0.4,1.1-0.5l7.7-1.8c0.6-0.1,1.2-0.3,1.7-0.4c0.6-0.1,1.1-0.2,1.6-0.3c-0.4-0.3-0.9-0.6-1.3-0.9
			c-0.4-0.3-0.9-0.6-1.4-1.1l-6.2-5c-0.1-0.1-0.2-0.2-0.4-0.4c-0.1-0.1-0.2-0.4-0.3-0.5s-0.1-0.4-0.1-0.6c-0.1-0.2-0.1-0.4,0-0.6
			l1.2-5L487.1,238.1z"/>
		<path class="st0" d="M480.5,214.6c0.2,0.2,0.4,0.4,0.5,0.6c0.1,0.1,0.1,0.4,0.1,0.7c-0.1,0.3-0.1,0.5-0.4,0.8
			c-0.2,0.3-0.4,0.6-0.6,0.9c-0.3,0.4-0.5,0.8-0.7,1.2c-0.2,0.4-0.4,1-0.4,1.6c-0.1,1.1-0.1,1.9,0.4,2.4c0.4,0.6,0.9,0.9,1.7,1.1
			c0.5,0,0.9-0.1,1.3-0.4s0.6-0.6,1-1.2c0.3-0.4,0.6-1,0.9-1.7c0.2-0.6,0.6-1.2,0.9-1.9c0.4-0.6,0.7-1.3,1.1-1.9
			c0.4-0.6,0.9-1.1,1.5-1.6c0.6-0.4,1.2-0.7,1.9-0.9c0.8-0.3,1.7-0.3,2.7-0.1c1.2,0.1,2.2,0.4,3.1,0.9c0.9,0.6,1.7,1.2,2.4,2.1
			c0.6,0.8,1.1,1.8,1.4,3c0.3,1.2,0.4,2.4,0.1,3.7c-0.1,0.8-0.2,1.6-0.5,2.3c-0.2,0.8-0.6,1.5-0.9,2.2c-0.4,0.7-0.8,1.4-1.3,1.9
			c-0.4,0.6-1,1.1-1.5,1.5l-2.4-2c-0.1-0.1-0.3-0.4-0.4-0.6c-0.1-0.2-0.1-0.5-0.1-0.7c0.1-0.4,0.2-0.6,0.4-1
			c0.3-0.3,0.6-0.6,0.9-1.1c0.3-0.4,0.6-0.9,0.9-1.4c0.3-0.5,0.5-1.2,0.6-1.9c0.1-1,0-1.9-0.4-2.4c-0.4-0.6-1.1-1-2-1.2
			c-0.6-0.1-1.1,0-1.4,0.3c-0.4,0.3-0.8,0.6-1.1,1.2c-0.3,0.4-0.6,1-0.9,1.7c-0.2,0.6-0.5,1.2-0.8,1.9c-0.4,0.6-0.7,1.3-1.1,1.9
			c-0.4,0.6-0.9,1.1-1.5,1.5c-0.6,0.5-1.2,0.8-2.1,1c-0.8,0.2-1.8,0.3-3,0.1c-0.9-0.1-1.7-0.4-2.6-0.9c-0.8-0.5-1.5-1.1-2.1-1.9
			c-0.6-0.8-1.1-1.7-1.3-2.8c-0.3-1.1-0.4-2.3-0.2-3.7c0.1-0.7,0.3-1.4,0.5-2.2c0.2-0.6,0.4-1.3,0.8-1.9c0.3-0.6,0.6-1.2,1-1.7
			c0.4-0.5,0.8-1,1.3-1.4L480.5,214.6z M481.9,192.8l-0.6,6.9l20.1,1.5l-0.4,5.7l-20.1-1.5l-0.5,6.9l-4.5-0.4l1.5-19.5L481.9,192.8z
			 M481.5,186.2l5.8-0.1l-0.2-7.7l4.2-0.1l0.2,7.8l5.9-0.1l-0.3-10.2l4.4-0.1l0.4,15.8l-24.6,0.6l-0.4-15.8l4.4-0.1L481.5,186.2z
			 M473.9,147.7l24.4-3.1l0.6,5l-14,1.8c-0.4,0.1-0.7,0.1-1.1,0.1c-0.4,0-0.8,0-1.2,0l13.4,4.9c0.4,0.1,0.7,0.4,0.9,0.7
			c0.3,0.3,0.4,0.7,0.5,1.2l0.1,0.7c0.1,0.4,0,0.9-0.1,1.2c-0.1,0.4-0.4,0.6-0.8,0.9l-11.8,8.1c0.4-0.1,0.8-0.1,1.2-0.2
			c0.4-0.1,0.7-0.1,1-0.1l14.1-1.8l0.6,5l-24.4,3.1l-0.5-4.3c-0.1-0.2-0.1-0.4-0.1-0.6c-0.1-0.1,0-0.4,0-0.5
			c0.1-0.1,0.1-0.3,0.2-0.4s0.3-0.2,0.4-0.4L489,161c0.4-0.3,0.9-0.6,1.3-0.9c0.4-0.2,0.9-0.5,1.3-0.8c-0.5-0.1-1-0.2-1.5-0.4
			c-0.5-0.1-0.9-0.4-1.4-0.5l-13.1-4.7c-0.2-0.1-0.4-0.2-0.6-0.3c-0.1-0.1-0.2-0.2-0.3-0.4s-0.1-0.3-0.1-0.5
			c-0.1-0.2-0.1-0.4-0.1-0.6L473.9,147.7z"/>
	</g>
	<path class="st1" d="M125.3,47.2C173.2,3.9,244.8-11.5,306.1,9c-52.6-4.2-107.9,11.7-145.2,50.2c-54.9,52.1-68.2,142.1-30.1,207.7
		c18.5-11.6,41.5-15.8,62.8-9.9c23.7,6.8,45.3,19.3,66.3,32c12.5,7.6,27.4,10.2,39.3,18.8c3.8,9.1-7,15.6-14.9,16
		c-22.2,2-40.3-13.8-61-19c11.2,16.8,32,22,50.8,24.6c28.8,3.1,57.2-5.5,83.9-15.4c12.2-4,29.2-8.8,38.1,3.8
		c-12.4,12.5-29.7,17.2-44.1,26.7c-30.7,20.6-67.7,31.2-104.6,30.2c-61.7,0.9-121.5-33.3-155-84.5c-19.2-29.7-30.5-64.9-30.1-100.3
		C60.5,136,84.9,82.5,125.3,47.2z"/>
	<path class="st1" d="M238.5,26.1c41.2-13,87.8-8.3,125.1,13.8c36.4,21,63.2,57.8,72.3,98.9c21.5,95.9-37.3,162.3-126.8,180.6
		c-0.7-5.6-1.4-11.2-2.2-16.8c34.3-12.7,63.7-38.5,79.6-71.6c19.2-38.2,19.5-85.2,0.7-123.7c-18.6-39.9-56.7-69.9-99.9-78.4
		C271.4,25.3,254.8,26.4,238.5,26.1z"/>
	<path class="st1" d="M144.6,97.3c6.7-10.7,35.1-36,50.7-42c-9.7,11.4-22.2,23.4-21.7,39.7c-0.9,9.1,7.9,15.7,16.3,15.8
		c17.3,1,32.6-8.1,47.5-15.5c-15.7,17.6-38.2,26-59,35.6c-29.3,18.6-41.7,54-46.9,86.7C116.6,178.3,123.5,133.1,144.6,97.3z"/>
	<path class="st1" d="M327.9,57.4c21.9,8.6,37.4,27.9,46.5,49c19.4,43.6,18.2,97.1-7.7,137.9c0.1-33,2.4-72.1-23.1-97.3
		C325,133.8,303,123.4,290,103.6c15,8.9,29.9,21.5,48.4,20.7c9.8,0,17.2-9.9,15.9-19.3C353.4,85.8,339,71.7,327.9,57.4z"/>
	<path class="st2" d="M193.7,71.8c10.1-6,23.9,4.7,21.9,16c-0.6,12.6-18.8,17.9-26.5,8.3C181.6,89.1,184.3,75.7,193.7,71.8z"/>
	<path class="st2" d="M322.5,82.5c9-3.2,20.5,2.9,21,12.8c2.4,12.5-13.6,23-24,15.6C307.8,105.1,310.3,86.1,322.5,82.5z"/>
	<path class="st1" d="M290.6,117.7c12,20.5,10.4,45.6,9,68.4c-3.5,34.3-12.8,68.3-30.3,98.1c-6-3.5-12.5-6.3-17.7-10.9
		c-2.7-9.7-3.4-19.9-7.5-29.2c-7.3-16.8-18.9-31.6-25-49c-7.8-21-8.4-43.7-6.5-65.7c4.4,21.4,10.8,45.5,30.5,57.8
		c12.2,8.2,29.7,4.4,37.9-7.6C293.9,161.7,292.9,138.6,290.6,117.7z"/>
	<path class="st2" d="M248.5,140.6c10.2-4.2,23.1,0.9,25.9,12c5.8,14.6-12.5,30-26.1,22.4C233.8,169.6,233.6,145.7,248.5,140.6z"/>
</g>
</svg>
